<svg width="55" height="55" viewBox="0 0 55 55" fill="none" xmlns="http://www.w3.org/2000/svg">
<rect width="55" height="55" fill="white"/>
<path d="M35.6256 22.1H29.7846V27.875H26.2536V22.1H20.4126V18.8H26.2536V13.025H29.7846V18.8H35.6256V22.1Z" fill="#CC5520"/>
<path d="M22.1624 39.943H17.8724L16.9484 42H16.1014L19.6214 34.3H20.4244L23.9444 42H23.0864L22.1624 39.943ZM21.8654 39.283L20.0174 35.147L18.1694 39.283H21.8654ZM30.8294 33.838V42H30.0814V40.856C29.8468 41.2447 29.5351 41.5417 29.1464 41.747C28.7651 41.9523 28.3324 42.055 27.8484 42.055C27.3058 42.055 26.8144 41.9303 26.3744 41.681C25.9344 41.4317 25.5898 41.0833 25.3404 40.636C25.0911 40.1887 24.9664 39.679 24.9664 39.107C24.9664 38.535 25.0911 38.0253 25.3404 37.578C25.5898 37.1307 25.9344 36.786 26.3744 36.544C26.8144 36.2947 27.3058 36.17 27.8484 36.17C28.3178 36.17 28.7394 36.269 29.1134 36.467C29.4948 36.6577 29.8064 36.94 30.0484 37.314V33.838H30.8294ZM27.9144 41.362C28.3178 41.362 28.6808 41.2703 29.0034 41.087C29.3334 40.8963 29.5901 40.6287 29.7734 40.284C29.9641 39.9393 30.0594 39.547 30.0594 39.107C30.0594 38.667 29.9641 38.2747 29.7734 37.93C29.5901 37.5853 29.3334 37.3213 29.0034 37.138C28.6808 36.9473 28.3178 36.852 27.9144 36.852C27.5038 36.852 27.1334 36.9473 26.8034 37.138C26.4808 37.3213 26.2241 37.5853 26.0334 37.93C25.8501 38.2747 25.7584 38.667 25.7584 39.107C25.7584 39.547 25.8501 39.9393 26.0334 40.284C26.2241 40.6287 26.4808 40.8963 26.8034 41.087C27.1334 41.2703 27.5038 41.362 27.9144 41.362ZM38.8345 33.838V42H38.0865V40.856C37.8519 41.2447 37.5402 41.5417 37.1515 41.747C36.7702 41.9523 36.3375 42.055 35.8535 42.055C35.3109 42.055 34.8195 41.9303 34.3795 41.681C33.9395 41.4317 33.5949 41.0833 33.3455 40.636C33.0962 40.1887 32.9715 39.679 32.9715 39.107C32.9715 38.535 33.0962 38.0253 33.3455 37.578C33.5949 37.1307 33.9395 36.786 34.3795 36.544C34.8195 36.2947 35.3109 36.17 35.8535 36.17C36.3229 36.17 36.7445 36.269 37.1185 36.467C37.4999 36.6577 37.8115 36.94 38.0535 37.314V33.838H38.8345ZM35.9195 41.362C36.3229 41.362 36.6859 41.2703 37.0085 41.087C37.3385 40.8963 37.5952 40.6287 37.7785 40.284C37.9692 39.9393 38.0645 39.547 38.0645 39.107C38.0645 38.667 37.9692 38.2747 37.7785 37.93C37.5952 37.5853 37.3385 37.3213 37.0085 37.138C36.6859 36.9473 36.3229 36.852 35.9195 36.852C35.5089 36.852 35.1385 36.9473 34.8085 37.138C34.4859 37.3213 34.2292 37.5853 34.0385 37.93C33.8552 38.2747 33.7635 38.667 33.7635 39.107C33.7635 39.547 33.8552 39.9393 34.0385 40.284C34.2292 40.6287 34.4859 40.8963 34.8085 41.087C35.1385 41.2703 35.5089 41.362 35.9195 41.362Z" fill="#CC5520"/>
</svg>
